<svg width="100" height="100" viewBox="0 0 100 100" fill="none" xmlns="http://www.w3.org/2000/svg">
<rect width="100" height="100" rx="30" fill="#FF8126"/>
<path d="M42.1667 50C41.0852 50 40.2084 50.97 40.2084 52.1667C40.2084 53.3633 41.0852 54.3333 42.1667 54.3333H57.8334C58.915 54.3333 59.7917 53.3633 59.7917 52.1667C59.7917 50.97 58.915 50 57.8334 50H42.1667Z" fill="white"/>
<path d="M40.2084 60.8334C40.2084 59.6368 41.0852 58.6667 42.1667 58.6667H50.0001C51.0817 58.6667 51.9584 59.6368 51.9584 60.8334C51.9584 62.0301 51.0817 63.0001 50.0001 63.0001H42.1667C41.0852 63.0001 40.2084 62.0301 40.2084 60.8334Z" fill="white"/>
<path fill-rule="evenodd" clip-rule="evenodd" d="M42.1667 30.4999C42.1667 29.3033 41.2899 28.3333 40.2083 28.3333C39.1268 28.3333 38.25 29.3033 38.25 30.4999V32.8833C33.7806 33.887 30.4167 38.2588 30.4167 43.4999V60.8332C30.4167 66.8163 34.8005 71.6666 40.2083 71.6666H59.7917C65.1994 71.6666 69.5833 66.8163 69.5833 60.8332V43.4999C69.5833 38.2588 66.2193 33.887 61.75 32.8833V30.4999C61.75 29.3033 60.8732 28.3333 59.7917 28.3333C58.7101 28.3333 57.8333 29.3033 57.8333 30.4999V32.6666H42.1667V30.4999ZM34.3333 45.6666H65.6667V60.8332C65.6667 64.4232 63.0364 67.3332 59.7917 67.3332H40.2083C36.9637 67.3332 34.3333 64.4232 34.3333 60.8332V45.6666Z" fill="white"/>
</svg>
