<svg width="364" height="183" viewBox="0 0 364 183" fill="none" xmlns="http://www.w3.org/2000/svg">
<path d="M292.168 89.6327C294.152 85.3022 295.792 79.6517 294.864 79.2147C293.918 78.7954 290.75 83.7369 288.766 88.0675C288.578 88.4676 288.41 88.85 288.243 89.2325C287.619 89.4247 286.295 89.8427 284.631 90.374C284.632 90.3554 284.669 90.3573 284.689 90.3211L285.213 89.156C285.276 89.0103 285.191 88.8386 285.028 88.756L283.9 88.2346C283.737 88.152 283.547 88.217 283.484 88.3627L282.961 89.5278C282.961 89.5278 282.955 89.6577 282.951 89.7319L282.325 91.078C280.907 91.5285 279.357 92.0096 277.844 92.4925L278.367 91.3461C278.43 91.2004 278.345 91.0286 278.182 90.946L277.054 90.4246C276.891 90.342 276.701 90.4071 276.638 90.5528L276.115 91.7178C276.115 91.7178 276.108 91.8478 276.105 91.922L275.5 93.2319C271.623 94.4718 268.388 95.5204 268.31 95.5909C268.096 95.785 267.376 97.5358 267.376 97.5358C267.188 97.9359 267.078 98.2839 267.133 98.3053C267.17 98.3071 267.414 97.8912 267.6 97.5097L275.388 96.5948C275.26 96.9235 275.228 97.201 275.301 97.2233C275.41 97.2659 275.629 96.9791 275.817 96.579L275.819 96.5418L277.373 96.3587C277.264 96.6697 277.214 96.9277 277.305 96.9695C277.414 97.0121 277.633 96.7253 277.821 96.3252L279.225 96.1532L280.185 96.3127C280.037 96.6775 279.964 97.0089 280.074 97.0515C280.183 97.0942 280.402 96.8073 280.59 96.4072L280.591 96.3887L282.53 96.69C282.381 97.0548 282.329 97.3686 282.42 97.4103C282.529 97.453 282.748 97.1661 282.935 96.766L282.936 96.7475L284.709 97.0218C283.409 99.9534 282.923 101.12 281.942 103.268C280.959 105.433 280.163 107.59 279.568 109.458C277.468 110.135 273.252 111.451 273.252 111.451L272.598 112.629L278.442 113.757C278.365 114.181 278.328 114.533 278.315 114.793C277.971 115.725 277.793 116.312 277.866 116.352C277.957 116.394 278.279 115.889 278.73 115.056C278.907 114.878 279.144 114.592 279.425 114.197L284.154 117.894L284.607 116.632C284.607 116.632 282.718 112.332 281.885 110.374C282.859 108.766 283.94 106.866 285.045 104.855C286.277 102.162 286.838 100.999 288.002 98.5444L289.359 99.6915C289.172 100.092 289.098 100.46 289.207 100.503C289.298 100.544 289.497 100.294 289.682 99.9309L291.183 101.197L291.182 101.215C290.994 101.615 290.92 101.984 291.03 102.027C291.121 102.068 291.338 101.819 291.505 101.455L292.255 102.088L293.052 103.263C292.865 103.663 292.791 104.031 292.9 104.074C292.991 104.116 293.15 103.919 293.313 103.629L294.18 104.919L294.178 104.956C293.972 105.356 293.916 105.725 294.007 105.767C294.098 105.808 294.276 105.594 294.441 105.286L298.844 111.777C298.676 112.159 298.504 112.635 298.54 112.655C298.595 112.676 298.778 112.369 298.965 111.969C298.965 111.969 299.83 110.3 299.845 110.003C299.85 109.892 298.518 106.754 296.917 103.027L297.522 101.717C297.522 101.717 297.655 101.649 297.677 101.595L298.2 100.43C298.263 100.284 298.178 100.112 298.015 100.03L296.887 99.5081C296.724 99.4255 296.534 99.4905 296.471 99.6363L295.949 100.783C295.315 99.3181 294.681 97.8349 294.08 96.465L294.705 95.119C294.705 95.119 294.839 95.0512 294.86 94.9964L295.383 93.8313C295.446 93.6856 295.362 93.5139 295.198 93.4313L294.071 92.9099C293.907 92.8273 293.718 92.8924 293.655 93.0381L293.131 94.2031C293.131 94.2031 293.129 94.2588 293.128 94.2774C292.443 92.6986 291.892 91.4428 291.624 90.834C291.792 90.4515 291.979 90.0699 292.166 89.6698L292.168 89.6327Z" fill="#F411CF"/>
<path d="M255.488 149.72C256.562 148.322 257.638 146.905 258.696 145.469C258.995 145.074 259.558 144.972 259.952 145.271C260.347 145.57 260.449 146.133 260.15 146.528C259.092 147.982 258.015 149.418 256.922 150.815C256.623 151.209 256.042 151.292 255.648 150.975C255.397 150.795 255.282 150.491 255.296 150.213C255.305 150.027 255.369 149.863 255.489 149.701L255.488 149.72ZM263.289 142.18C264.311 140.724 265.333 139.248 266.338 137.754C266.619 137.34 266.517 136.776 266.084 136.494C265.67 136.213 265.106 136.334 264.825 136.748C263.821 138.224 262.817 139.7 261.796 141.138C261.696 141.282 261.632 141.446 261.623 141.613C261.609 141.91 261.742 142.215 262.013 142.396C262.427 142.677 262.989 142.593 263.27 142.179L263.289 142.18ZM234.106 174.337C234.094 174.579 234.175 174.825 234.37 175.021C234.725 175.373 235.301 175.383 235.654 175.029C236.907 173.77 238.162 172.492 239.418 171.196C239.77 170.842 239.743 170.263 239.389 169.911C239.034 169.558 238.456 169.585 238.103 169.94C236.866 171.237 235.612 172.496 234.359 173.736C234.184 173.895 234.099 174.114 234.088 174.337L234.106 174.337ZM70.8596 159.265C71.8609 157.845 72.9002 156.408 73.9776 154.954C74.2764 154.559 74.1928 153.997 73.7991 153.679C73.4046 153.381 72.8421 153.464 72.5247 153.858C71.4279 155.329 70.369 156.784 69.3678 158.204C69.2675 158.348 69.2221 158.513 69.2138 158.681C69.199 158.978 69.3327 159.282 69.6028 159.463C70.0169 159.744 70.5803 159.642 70.8606 159.246L70.8596 159.265ZM269.26 133.265C270.228 131.769 271.178 130.253 272.111 128.717C272.374 128.284 272.234 127.737 271.819 127.475C271.386 127.211 270.839 127.351 270.576 127.766C269.645 129.283 268.694 130.799 267.746 132.278C267.664 132.423 267.62 132.569 267.613 132.718C267.597 133.034 267.749 133.339 268.019 133.52C268.434 133.782 268.999 133.662 269.261 133.247L269.26 133.265ZM241.507 166.61C241.494 166.87 241.593 167.136 241.807 167.314C242.181 167.649 242.741 167.621 243.075 167.266C244.276 165.948 245.477 164.631 246.661 163.275C246.977 162.9 246.95 162.322 246.575 162.006C246.201 161.67 245.622 161.716 245.306 162.091C244.122 163.428 242.94 164.746 241.739 166.064C241.582 166.223 241.516 166.425 241.506 166.629L241.507 166.61ZM80.6267 146.631C80.9432 146.256 80.8976 145.677 80.5225 145.36C80.1474 145.044 79.5683 145.089 79.2518 145.464C78.0658 146.857 76.9355 148.252 75.8442 149.612C75.7245 149.774 75.6595 149.957 75.6512 150.124C75.6373 150.402 75.7534 150.687 75.9864 150.866C76.3801 151.184 76.9416 151.119 77.259 150.725C78.3503 149.365 79.4797 147.988 80.6462 146.613L80.6267 146.631ZM248.784 158.021C248.646 158.182 248.581 158.365 248.571 158.55C248.557 158.829 248.674 159.095 248.888 159.292C249.263 159.608 249.842 159.563 250.159 159.188C251.306 157.83 252.436 156.435 253.566 155.04C253.883 154.665 253.819 154.085 253.425 153.767C253.031 153.45 252.47 153.515 252.152 153.908C251.041 155.305 249.911 156.682 248.765 158.02L248.784 158.021ZM87.7057 138.646C88.0407 138.272 88.0313 137.713 87.6581 137.359C87.2839 137.024 86.7251 137.034 86.3716 137.407C85.1326 138.741 83.9309 140.077 82.768 141.378C82.6298 141.538 82.5453 141.739 82.5361 141.925C82.5231 142.184 82.6216 142.45 82.8351 142.647C83.2093 142.982 83.7885 142.936 84.1049 142.561C85.2677 141.26 86.45 139.942 87.6889 138.608L87.7057 138.646ZM128.723 232.44C126.957 232.78 125.211 233.083 123.486 233.351C123.054 233.423 122.738 233.779 122.717 234.206C122.714 234.262 122.711 234.336 122.708 234.392C122.777 234.879 123.244 235.219 123.731 235.15C125.475 234.883 127.258 234.581 129.043 234.242C129.531 234.155 129.852 233.687 129.766 233.18C129.679 232.692 129.192 232.37 128.704 232.457L128.723 232.44ZM118.202 234.056C116.424 234.265 114.648 234.418 112.911 234.555C112.444 234.588 112.09 234.961 112.068 235.407C112.066 235.444 112.064 235.481 112.062 235.518C112.093 236.022 112.521 236.397 113.026 236.348C114.8 236.231 116.576 236.059 118.392 235.852C118.878 235.802 119.255 235.337 119.186 234.849C119.137 234.344 118.689 234.005 118.184 234.055L118.202 234.056ZM274.891 124.091C275.786 122.554 276.683 120.998 277.561 119.423C277.806 118.988 277.648 118.441 277.213 118.196C276.779 117.951 276.231 118.11 275.986 118.544C275.108 120.101 274.23 121.658 273.336 123.177C273.255 123.303 273.229 123.45 273.223 123.58C273.207 123.896 273.377 124.221 273.666 124.403C274.1 124.648 274.647 124.507 274.91 124.074L274.891 124.091ZM139.113 230.091C137.379 230.544 135.646 230.96 133.932 231.359C133.537 231.451 133.259 231.809 133.239 232.199C133.235 232.273 133.231 232.366 133.264 232.442C133.37 232.932 133.858 233.235 134.347 233.129C136.079 232.731 137.812 232.315 139.566 231.844C140.056 231.72 140.341 231.232 140.216 230.741C140.092 230.251 139.603 229.966 139.113 230.091ZM107.612 234.812C105.824 234.854 104.037 234.858 102.308 234.827C101.825 234.803 101.415 235.192 101.39 235.694L101.389 235.712C101.364 236.213 101.771 236.624 102.274 236.631C104.04 236.663 105.845 236.66 107.671 236.621C108.174 236.608 108.568 236.181 108.555 235.697C108.542 235.194 108.134 234.801 107.631 234.813L107.612 234.812ZM144.229 228.652C143.851 228.764 143.592 229.104 143.573 229.476C143.569 229.568 143.563 229.68 143.614 229.775C143.758 230.248 144.265 230.534 144.738 230.39C146.437 229.897 148.158 229.35 149.88 228.785C150.353 228.622 150.62 228.114 150.458 227.641C150.295 227.168 149.787 226.9 149.314 227.063C147.611 227.63 145.91 228.14 144.229 228.652ZM183.427 212.124C183.14 212.277 182.977 212.567 182.962 212.864C182.954 213.031 182.983 213.2 183.068 213.353C183.307 213.793 183.857 213.951 184.297 213.712C185.847 212.859 187.417 211.969 188.97 211.06C189.411 210.803 189.55 210.252 189.292 209.829C189.035 209.388 188.483 209.249 188.061 209.507C186.508 210.416 184.976 211.289 183.426 212.143L183.427 212.124ZM164.258 221.461C163.935 221.594 163.733 221.919 163.716 222.253C163.71 222.383 163.74 222.515 163.79 222.647C163.99 223.104 164.519 223.317 164.975 223.134C166.611 222.434 168.247 221.716 169.903 220.979C170.359 220.779 170.554 220.23 170.354 219.773C170.153 219.317 169.604 219.122 169.148 219.322C167.51 220.06 165.893 220.779 164.277 221.462L164.258 221.461ZM54.8116 197.865C54.8958 196.175 55.1126 194.437 55.4242 192.665C55.5039 192.186 55.1743 191.704 54.6944 191.624C54.1959 191.543 53.7328 191.874 53.6531 192.354C53.3378 194.199 53.1173 196.012 53.0294 197.776C53.0045 198.277 53.3925 198.706 53.8752 198.73C54.3765 198.755 54.8043 198.385 54.8293 197.884L54.8116 197.865ZM65.0915 168.209C65.9656 166.726 66.8973 165.209 67.8846 163.695C68.1472 163.28 68.0264 162.716 67.6115 162.453C67.1965 162.191 66.6322 162.311 66.3696 162.726C65.3618 164.277 64.4292 165.812 63.5357 167.312C63.4549 167.439 63.429 167.586 63.4225 167.716C63.4068 168.032 63.5767 168.356 63.8654 168.538C64.2999 168.783 64.8466 168.643 65.1101 168.21L65.0915 168.209ZM60.0079 217.59C59.0182 216.164 58.162 214.669 57.4405 213.089C57.2399 212.632 56.6913 212.437 56.2347 212.638C55.9107 212.789 55.7279 213.096 55.7122 213.412C55.7048 213.561 55.7355 213.692 55.7847 213.825C56.5397 215.482 57.4636 217.11 58.5053 218.613C58.7829 219.018 59.3547 219.121 59.7594 218.843C60.165 218.547 60.267 217.994 59.9894 217.589L60.0079 217.59ZM153.79 226.504C153.952 226.978 154.48 227.227 154.954 227.046C156.622 226.441 158.309 225.817 159.98 225.156C160.436 224.974 160.667 224.446 160.485 223.99C160.303 223.516 159.774 223.304 159.319 223.486C157.648 224.147 155.998 224.772 154.331 225.359C153.971 225.49 153.75 225.814 153.732 226.166C153.727 226.278 153.739 226.409 153.789 226.523L153.79 226.504ZM174.745 218.671C176.347 217.894 177.951 217.081 179.555 216.249C179.994 216.029 180.17 215.479 179.932 215.039C179.693 214.599 179.162 214.424 178.722 214.663C177.136 215.496 175.552 216.291 173.951 217.049C173.645 217.202 173.464 217.49 173.447 217.824C173.44 217.973 173.469 218.123 173.537 218.257C173.756 218.714 174.306 218.891 174.745 218.671ZM76.9357 231.2C77.1269 230.726 76.9105 230.213 76.4361 230.021C74.7764 229.343 73.1945 228.594 71.6906 227.775C71.2562 227.53 70.7086 227.689 70.4627 228.142C70.4005 228.269 70.3569 228.397 70.3504 228.527C70.3338 228.861 70.5037 229.186 70.811 229.369C72.3687 230.228 74.0239 230.999 75.7384 231.699C76.1942 231.889 76.7261 231.674 76.9172 231.199L76.9357 231.2ZM97.8235 235.553C97.8688 235.016 97.4975 234.625 96.9971 234.581C95.1992 234.436 93.4401 234.255 91.7405 234.003C91.2411 233.941 90.7966 234.273 90.7159 234.771C90.715 234.79 90.7131 234.827 90.7122 234.845C90.6891 235.31 91.0224 235.717 91.4847 235.777C93.2214 236.031 95.0361 236.215 96.8527 236.361C97.3539 236.386 97.7809 236.035 97.8244 235.535L97.8235 235.553ZM55.7474 208.221C55.3266 206.581 55.0404 204.855 54.886 203.098C54.8367 202.593 54.4078 202.237 53.9037 202.267C53.4554 202.301 53.1018 202.674 53.0797 203.12C53.0778 203.157 53.076 203.194 53.0732 203.249C53.2415 205.1 53.5408 206.939 53.9755 208.673C54.1 209.163 54.5883 209.448 55.0784 209.323C55.5685 209.199 55.8533 208.711 55.7289 208.221L55.7474 208.221ZM87.2284 234.169C87.3267 233.69 87.0166 233.191 86.5376 233.093C84.7879 232.726 83.0613 232.268 81.4294 231.778C80.9532 231.624 80.4557 231.897 80.3017 232.373C80.298 232.447 80.2758 232.52 80.2721 232.595C80.2517 233.003 80.5117 233.388 80.9155 233.501C82.6022 234.013 84.3668 234.455 86.1713 234.843C86.6689 234.942 87.1496 234.631 87.2479 234.152L87.2284 234.169ZM67.505 226.245C67.8038 225.851 67.7211 225.27 67.307 224.989C65.8885 223.95 64.5498 222.804 63.3624 221.61C63.0077 221.257 62.4313 221.247 62.0786 221.601C61.9218 221.761 61.8179 221.979 61.8068 222.202C61.7947 222.443 61.8756 222.689 62.0705 222.885C63.3285 224.158 64.7387 225.363 66.2287 226.461C66.6233 226.76 67.2043 226.677 67.4855 226.263L67.505 226.245ZM219.764 189.517C221.143 188.376 222.503 187.215 223.865 186.036C224.235 185.701 224.281 185.145 223.947 184.756C223.612 184.386 223.056 184.339 222.667 184.674C221.324 185.854 219.964 186.996 218.606 188.119C218.411 188.295 218.287 188.531 218.275 188.773C218.264 188.995 218.327 189.222 218.486 189.397C218.802 189.785 219.376 189.832 219.764 189.517ZM60.248 177.645C60.9587 176.08 61.727 174.48 62.551 172.884C62.7773 172.448 62.6 171.9 62.1655 171.655C61.7301 171.428 61.1816 171.606 60.9552 172.041C60.1108 173.674 59.3221 175.31 58.591 176.911C58.5483 177.021 58.5242 177.131 58.5187 177.242C58.5011 177.595 58.7063 177.959 59.0526 178.107C59.5074 178.315 60.0393 178.1 60.248 177.645ZM226.367 181.75C226.356 181.973 226.437 182.219 226.596 182.394C226.931 182.764 227.506 182.793 227.877 182.458C229.202 181.258 230.509 180.039 231.818 178.802C232.188 178.467 232.198 177.89 231.845 177.519C231.51 177.149 230.933 177.139 230.562 177.492C229.272 178.731 227.965 179.931 226.659 181.132C226.483 181.29 226.378 181.527 226.367 181.75ZM198.145 205.45C198.569 205.173 198.689 204.621 198.413 204.198C198.136 203.775 197.584 203.654 197.16 203.931C195.66 204.898 194.161 205.866 192.664 206.778C192.395 206.932 192.251 207.222 192.237 207.501C192.228 207.686 192.275 207.856 192.378 208.029C192.636 208.451 193.206 208.591 193.629 208.315C195.146 207.385 196.664 206.419 198.165 205.432L198.145 205.45ZM201.199 201.675C201.19 201.861 201.236 202.068 201.358 202.223C201.636 202.628 202.207 202.749 202.612 202.453C204.077 201.446 205.542 200.421 207.01 199.359C207.415 199.063 207.499 198.509 207.221 198.104C206.925 197.699 206.371 197.615 205.966 197.893C204.518 198.937 203.053 199.962 201.608 200.951C201.357 201.125 201.233 201.379 201.219 201.658L201.199 201.675ZM56.6085 187.569C57.0621 185.936 57.6113 184.251 58.2357 182.551C58.4082 182.076 58.1733 181.562 57.698 181.389C57.2227 181.216 56.7085 181.451 56.5359 181.927C55.8912 183.663 55.3392 185.403 54.8643 187.092C54.8606 187.166 54.8393 187.221 54.8356 187.295C54.8152 187.703 55.0752 188.088 55.4976 188.203C55.9747 188.338 56.4731 188.046 56.6085 187.569ZM215.595 192.901C215.982 192.585 216.048 192.012 215.733 191.624C215.417 191.236 214.862 191.171 214.455 191.486C213.06 192.589 211.647 193.691 210.235 194.756C210.003 194.93 209.898 195.167 209.886 195.427C209.875 195.631 209.939 195.839 210.061 196.012C210.357 196.418 210.931 196.484 211.336 196.188C212.767 195.124 214.18 194.021 215.595 192.901Z" fill="#F411CF"/>
</svg>
