<svg width="184" height="177" viewBox="0 0 184 177" fill="none" xmlns="http://www.w3.org/2000/svg">
<g clip-path="url(#clip0_2078_790)">
<path d="M179.02 48.0303C180.46 48.0303 181.63 46.8503 181.63 45.4003C181.63 43.9503 180.46 42.7703 179.02 42.7703C177.58 42.7703 176.41 43.9503 176.41 45.4003C176.41 46.8503 177.58 48.0303 179.02 48.0303Z" fill="#FF5722"/>
<path d="M134.36 42.7703C132.919 42.7703 131.75 43.9478 131.75 45.4003C131.75 46.8528 132.919 48.0303 134.36 48.0303C135.801 48.0303 136.97 46.8528 136.97 45.4003C136.97 43.9478 135.801 42.7703 134.36 42.7703Z" fill="#FF5722"/>
<path d="M156.69 48.0303C158.13 48.0303 159.3 46.8503 159.3 45.4003C159.3 43.9503 158.13 42.7703 156.69 42.7703C155.25 42.7703 154.08 43.9503 154.08 45.4003C154.08 46.8503 155.25 48.0303 156.69 48.0303Z" fill="#FF5722"/>
<path d="M157.06 69.4102C158.5 69.4102 159.67 68.2302 159.67 66.7802C159.67 65.3302 158.5 64.1502 157.06 64.1502C155.62 64.1502 154.45 65.3302 154.45 66.7802C154.45 68.2302 155.62 69.4102 157.06 69.4102Z" fill="#FF5722"/>
<path d="M179.39 69.4102C180.83 69.4102 182 68.2302 182 66.7802C182 65.3302 180.83 64.1502 179.39 64.1502C177.95 64.1502 176.78 65.3302 176.78 66.7802C176.78 68.2302 177.95 69.4102 179.39 69.4102Z" fill="#FF5722"/>
<path d="M112.4 69.4102C113.84 69.4102 115.01 68.2302 115.01 66.7802C115.01 65.3302 113.84 64.1502 112.4 64.1502C110.96 64.1502 109.79 65.3302 109.79 66.7802C109.79 68.2302 110.96 69.4102 112.4 69.4102Z" fill="#FF5722"/>
<path d="M134.73 69.4102C136.17 69.4102 137.34 68.2302 137.34 66.7802C137.34 65.3302 136.17 64.1502 134.73 64.1502C133.29 64.1502 132.12 65.3302 132.12 66.7802C132.12 68.2302 133.29 69.4102 134.73 69.4102Z" fill="#FF5722"/>
<path d="M179.02 5.25C180.46 5.25 181.63 4.07001 181.63 2.62001C181.63 1.17001 180.46 -0.00999419 179.02 -0.00999419C177.58 -0.00999419 176.41 1.17001 176.41 2.62001C176.41 4.07001 177.58 5.25 179.02 5.25Z" fill="#FF5722"/>
<path d="M157.06 26.6401C158.5 26.6401 159.67 25.4601 159.67 24.0101C159.67 22.5601 158.5 21.3801 157.06 21.3801C155.62 21.3801 154.45 22.5601 154.45 24.0101C154.45 25.4601 155.62 26.6401 157.06 26.6401Z" fill="#FF5722"/>
<path d="M179.39 26.6401C180.83 26.6401 182 25.4601 182 24.0101C182 22.5601 180.83 21.3801 179.39 21.3801C177.95 21.3801 176.78 22.5601 176.78 24.0101C176.78 25.4601 177.95 26.6401 179.39 26.6401Z" fill="#FF5722"/>
<path d="M90.44 90.8003C91.88 90.8003 93.05 89.6203 93.05 88.1703C93.05 86.7203 91.88 85.5403 90.44 85.5403C89 85.5403 87.83 86.7203 87.83 88.1703C87.83 89.6203 89 90.8003 90.44 90.8003Z" fill="#FF5722"/>
<path d="M135.1 90.8003C136.54 90.8003 137.71 89.6203 137.71 88.1703C137.71 86.7203 136.54 85.5403 135.1 85.5403C133.66 85.5403 132.49 86.7203 132.49 88.1703C132.49 89.6203 133.66 90.8003 135.1 90.8003Z" fill="#FF5722"/>
<path d="M112.77 85.5403C111.329 85.5403 110.16 86.7178 110.16 88.1703C110.16 89.6228 111.329 90.8003 112.77 90.8003C114.211 90.8003 115.38 89.6228 115.38 88.1703C115.38 86.7178 114.211 85.5403 112.77 85.5403Z" fill="#FF5722"/>
<path d="M157.44 90.8003C158.88 90.8003 160.05 89.6203 160.05 88.1703C160.05 86.7203 158.88 85.5403 157.44 85.5403C156 85.5403 154.83 86.7203 154.83 88.1703C154.83 89.6203 155.99 90.8003 157.44 90.8003Z" fill="#FF5722"/>
<path d="M179.77 90.8003C181.21 90.8003 182.38 89.6203 182.38 88.1703C182.38 86.7203 181.21 85.5403 179.77 85.5403C178.33 85.5403 177.16 86.7203 177.16 88.1703C177.16 89.6203 178.33 90.8003 179.77 90.8003Z" fill="#FF5722"/>
<path d="M90.82 112.19C92.26 112.19 93.43 111.01 93.43 109.56C93.43 108.11 92.26 106.93 90.82 106.93C89.38 106.93 88.21 108.11 88.21 109.56C88.21 111.01 89.38 112.19 90.82 112.19Z" fill="#FF5722"/>
<path d="M113.15 112.19C114.59 112.19 115.76 111.01 115.76 109.56C115.76 108.11 114.59 106.93 113.15 106.93C111.71 106.93 110.54 108.11 110.54 109.56C110.54 111.01 111.71 112.19 113.15 112.19Z" fill="#FF5722"/>
<path d="M135.48 112.19C136.92 112.19 138.09 111.01 138.09 109.56C138.09 108.11 136.92 106.93 135.48 106.93C134.04 106.93 132.87 108.11 132.87 109.56C132.87 111.01 134.04 112.19 135.48 112.19Z" fill="#FF5722"/>
<path d="M68.48 112.19C69.92 112.19 71.09 111.01 71.09 109.56C71.09 108.11 69.92 106.93 68.48 106.93C67.04 106.93 65.87 108.11 65.87 109.56C65.87 111.01 67.04 112.19 68.48 112.19Z" fill="#FF5722"/>
<path d="M180.14 112.19C181.58 112.19 182.75 111.01 182.75 109.56C182.75 108.11 181.58 106.93 180.14 106.93C178.7 106.93 177.53 108.11 177.53 109.56C177.53 111.01 178.7 112.19 180.14 112.19Z" fill="#FF5722"/>
<path d="M157.81 112.19C159.25 112.19 160.42 111.01 160.42 109.56C160.42 108.11 159.25 106.93 157.81 106.93C156.37 106.93 155.2 108.11 155.2 109.56C155.2 111.01 156.37 112.19 157.81 112.19Z" fill="#FF5722"/>
<path d="M180.51 133.58C181.95 133.58 183.12 132.4 183.12 130.95C183.12 129.5 181.95 128.32 180.51 128.32C179.07 128.32 177.9 129.5 177.9 130.95C177.9 132.4 179.07 133.58 180.51 133.58Z" fill="#FF5722"/>
<path d="M91.19 128.32C89.7485 128.32 88.58 129.498 88.58 130.95C88.58 132.403 89.7485 133.58 91.19 133.58C92.6315 133.58 93.8 132.403 93.8 130.95C93.8 129.498 92.6315 128.32 91.19 128.32Z" fill="#FF5722"/>
<path d="M46.53 128.32C45.0885 128.32 43.92 129.498 43.92 130.95C43.92 132.403 45.0885 133.58 46.53 133.58C47.9715 133.58 49.14 132.403 49.14 130.95C49.14 129.498 47.9715 128.32 46.53 128.32Z" fill="#FF5722"/>
<path d="M113.52 133.58C114.96 133.58 116.13 132.4 116.13 130.95C116.13 129.5 114.96 128.32 113.52 128.32C112.08 128.32 110.91 129.5 110.91 130.95C110.91 132.4 112.08 133.58 113.52 133.58Z" fill="#FF5722"/>
<path d="M135.85 133.58C137.29 133.58 138.46 132.4 138.46 130.95C138.46 129.5 137.29 128.32 135.85 128.32C134.41 128.32 133.24 129.5 133.24 130.95C133.24 132.4 134.41 133.58 135.85 133.58Z" fill="#FF5722"/>
<path d="M158.18 133.58C159.62 133.58 160.79 132.4 160.79 130.95C160.79 129.5 159.62 128.32 158.18 128.32C156.74 128.32 155.57 129.5 155.57 130.95C155.57 132.4 156.74 133.58 158.18 133.58Z" fill="#FF5722"/>
<path d="M68.86 133.58C70.3 133.58 71.47 132.4 71.47 130.95C71.47 129.5 70.3 128.32 68.86 128.32C67.42 128.32 66.25 129.5 66.25 130.95C66.25 132.4 67.42 133.58 68.86 133.58Z" fill="#FF5722"/>
<path d="M180.88 149.71C179.439 149.71 178.27 150.888 178.27 152.34C178.27 153.793 179.439 154.97 180.88 154.97C182.321 154.97 183.49 153.793 183.49 152.34C183.49 150.888 182.321 149.71 180.88 149.71Z" fill="#FF5722"/>
<path d="M69.23 154.96C70.67 154.96 71.84 153.78 71.84 152.33C71.84 150.88 70.67 149.7 69.23 149.7C67.79 149.7 66.62 150.88 66.62 152.33C66.62 153.78 67.79 154.96 69.23 154.96Z" fill="#FF5722"/>
<path d="M158.55 154.96C159.99 154.96 161.16 153.78 161.16 152.33C161.16 150.88 159.99 149.7 158.55 149.7C157.11 149.7 155.94 150.88 155.94 152.33C155.94 153.78 157.11 154.96 158.55 154.96Z" fill="#FF5722"/>
<path d="M113.89 154.96C115.33 154.96 116.5 153.78 116.5 152.33C116.5 150.88 115.33 149.7 113.89 149.7C112.45 149.7 111.28 150.88 111.28 152.33C111.28 153.78 112.45 154.96 113.89 154.96Z" fill="#FF5722"/>
<path d="M136.22 154.96C137.66 154.96 138.83 153.78 138.83 152.33C138.83 150.88 137.66 149.7 136.22 149.7C134.78 149.7 133.61 150.88 133.61 152.33C133.61 153.78 134.78 154.96 136.22 154.96Z" fill="#FF5722"/>
<path d="M91.56 154.96C93 154.96 94.17 153.78 94.17 152.33C94.17 150.88 93 149.7 91.56 149.7C90.12 149.7 88.95 150.88 88.95 152.33C88.95 153.78 90.12 154.96 91.56 154.96Z" fill="#FF5722"/>
<path d="M24.57 154.96C26.01 154.96 27.18 153.78 27.18 152.33C27.18 150.88 26.01 149.7 24.57 149.7C23.13 149.7 21.96 150.88 21.96 152.33C21.96 153.78 23.12 154.96 24.57 154.96Z" fill="#FF5722"/>
<path d="M46.9 154.96C48.34 154.96 49.51 153.78 49.51 152.33C49.51 150.88 48.34 149.7 46.9 149.7C45.46 149.7 44.29 150.88 44.29 152.33C44.29 153.78 45.45 154.96 46.9 154.96Z" fill="#FF5722"/>
<path d="M158.92 171.1C157.48 171.1 156.31 172.28 156.31 173.73C156.31 175.18 157.48 176.36 158.92 176.36C160.36 176.36 161.53 175.18 161.53 173.73C161.53 172.28 160.36 171.1 158.92 171.1Z" fill="#FF5722"/>
<path d="M181.25 171.1C179.81 171.1 178.64 172.28 178.64 173.73C178.64 175.18 179.82 176.35 181.25 176.35C182.68 176.35 183.86 175.17 183.86 173.72C183.86 172.27 182.69 171.09 181.25 171.09V171.1Z" fill="#FF5722"/>
<path d="M24.94 171.09C23.4985 171.09 22.33 172.268 22.33 173.72C22.33 175.173 23.4985 176.35 24.94 176.35C26.3815 176.35 27.55 175.173 27.55 173.72C27.55 172.268 26.3815 171.09 24.94 171.09Z" fill="#FF5722"/>
<path d="M91.93 171.1C90.49 171.1 89.32 172.28 89.32 173.73C89.32 175.18 90.49 176.36 91.93 176.36C93.37 176.36 94.54 175.18 94.54 173.73C94.54 172.28 93.37 171.1 91.93 171.1Z" fill="#FF5722"/>
<path d="M69.6 171.1C68.16 171.1 66.99 172.28 66.99 173.73C66.99 175.18 68.16 176.36 69.6 176.36C71.04 176.36 72.21 175.18 72.21 173.73C72.21 172.28 71.04 171.1 69.6 171.1Z" fill="#FF5722"/>
<path d="M47.27 171.1C45.83 171.1 44.66 172.28 44.66 173.73C44.66 175.18 45.83 176.36 47.27 176.36C48.71 176.36 49.88 175.18 49.88 173.73C49.88 172.28 48.71 171.1 47.27 171.1Z" fill="#FF5722"/>
<path d="M136.59 171.1C135.15 171.1 133.98 172.28 133.98 173.73C133.98 175.18 135.15 176.36 136.59 176.36C138.03 176.36 139.2 175.18 139.2 173.73C139.2 172.28 138.03 171.1 136.59 171.1Z" fill="#FF5722"/>
<path d="M2.61001 171.1C1.17001 171.1 4.61102e-06 172.28 4.61102e-06 173.73C4.61102e-06 175.18 1.16001 176.36 2.61001 176.36C4.06001 176.36 5.22001 175.18 5.22001 173.73C5.22001 172.28 4.05001 171.1 2.61001 171.1Z" fill="#FF5722"/>
<path d="M114.26 171.1C112.82 171.1 111.65 172.28 111.65 173.73C111.65 175.18 112.82 176.36 114.26 176.36C115.7 176.36 116.87 175.18 116.87 173.73C116.87 172.28 115.7 171.1 114.26 171.1Z" fill="#FF5722"/>
</g>
<defs>
<clipPath id="clip0_2078_790">
<rect width="183.86" height="176.35" fill="white" transform="matrix(-1 0 0 -1 183.86 176.35)"/>
</clipPath>
</defs>
</svg>
