<svg width="57" height="79" viewBox="0 0 57 79" fill="none" xmlns="http://www.w3.org/2000/svg">
<g filter="url(#filter0_d_2118_284)">
<path d="M12 43V56.9975V70.995L27.8919 56.9975L43.7838 70.995V56.9975V43L27.8919 44.4581L12 43Z" fill="#E74C3C"/>
</g>
<g filter="url(#filter1_d_2118_284)">
<path d="M53 24.3457C53 37.7914 42.031 48.6914 28.5 48.6914C14.969 48.6914 4 37.7914 4 24.3457C4 10.8999 14.969 0 28.5 0C42.031 0 53 10.8999 53 24.3457ZM9.45267 24.3457C9.45267 34.799 17.9804 43.273 28.5 43.273C39.0196 43.273 47.5473 34.799 47.5473 24.3457C47.5473 13.8924 39.0196 5.41832 28.5 5.41832C17.9804 5.41832 9.45267 13.8924 9.45267 24.3457Z" fill="#872BFF"/>
</g>
<g filter="url(#filter2_d_2118_284)">
<path d="M20.5369 21.9797C19.2448 20.1878 16.9074 19.9775 15.3162 21.5099C13.725 23.0424 13.4825 25.7372 14.7746 27.5291L17.6557 24.7544L20.5369 21.9797ZM18.356 32.4958L20.6955 35.7403L26.4578 30.1908L24.1183 26.9464L21.2371 29.7211L18.356 32.4958ZM17.6557 24.7544L14.7746 27.5291L18.356 32.4958L21.2371 29.7211L24.1183 26.9464L20.5369 21.9797L17.6557 24.7544Z" fill="#6A14DA"/>
<path d="M42.737 18.6962C44.2533 17.4974 44.5108 15.2964 43.312 13.78C42.1132 12.2636 39.9122 12.0062 38.3958 13.2049L40.5664 15.9506L42.737 18.6962ZM19 33L21.1706 35.7456L42.737 18.6962L40.5664 15.9506L38.3958 13.2049L16.8294 30.2544L19 33Z" fill="#6A14DA"/>
</g>
<defs>
<filter id="filter0_d_2118_284" x="8" y="43" width="39.7838" height="35.995" filterUnits="userSpaceOnUse" color-interpolation-filters="sRGB">
<feFlood flood-opacity="0" result="BackgroundImageFix"/>
<feColorMatrix in="SourceAlpha" type="matrix" values="0 0 0 0 0 0 0 0 0 0 0 0 0 0 0 0 0 0 127 0" result="hardAlpha"/>
<feOffset dy="4"/>
<feGaussianBlur stdDeviation="2"/>
<feComposite in2="hardAlpha" operator="out"/>
<feColorMatrix type="matrix" values="0 0 0 0 0 0 0 0 0 0 0 0 0 0 0 0 0 0 0.25 0"/>
<feBlend mode="normal" in2="BackgroundImageFix" result="effect1_dropShadow_2118_284"/>
<feBlend mode="normal" in="SourceGraphic" in2="effect1_dropShadow_2118_284" result="shape"/>
</filter>
<filter id="filter1_d_2118_284" x="0" y="0" width="57" height="56.6914" filterUnits="userSpaceOnUse" color-interpolation-filters="sRGB">
<feFlood flood-opacity="0" result="BackgroundImageFix"/>
<feColorMatrix in="SourceAlpha" type="matrix" values="0 0 0 0 0 0 0 0 0 0 0 0 0 0 0 0 0 0 127 0" result="hardAlpha"/>
<feOffset dy="4"/>
<feGaussianBlur stdDeviation="2"/>
<feComposite in2="hardAlpha" operator="out"/>
<feColorMatrix type="matrix" values="0 0 0 0 0 0 0 0 0 0 0 0 0 0 0 0 0 0 0.25 0"/>
<feBlend mode="normal" in2="BackgroundImageFix" result="effect1_dropShadow_2118_284"/>
<feBlend mode="normal" in="SourceGraphic" in2="effect1_dropShadow_2118_284" result="shape"/>
</filter>
<filter id="filter2_d_2118_284" x="9.94423" y="12.4504" width="38.1223" height="31.2952" filterUnits="userSpaceOnUse" color-interpolation-filters="sRGB">
<feFlood flood-opacity="0" result="BackgroundImageFix"/>
<feColorMatrix in="SourceAlpha" type="matrix" values="0 0 0 0 0 0 0 0 0 0 0 0 0 0 0 0 0 0 127 0" result="hardAlpha"/>
<feOffset dy="4"/>
<feGaussianBlur stdDeviation="2"/>
<feComposite in2="hardAlpha" operator="out"/>
<feColorMatrix type="matrix" values="0 0 0 0 0 0 0 0 0 0 0 0 0 0 0 0 0 0 0.25 0"/>
<feBlend mode="normal" in2="BackgroundImageFix" result="effect1_dropShadow_2118_284"/>
<feBlend mode="normal" in="SourceGraphic" in2="effect1_dropShadow_2118_284" result="shape"/>
</filter>
</defs>
</svg>
