<svg width="66" height="64" viewBox="0 0 66 64" fill="none" xmlns="http://www.w3.org/2000/svg">
<g filter="url(#filter0_d_2052_213)">
<path d="M56.2432 11.7379C52.1599 6.17344 46.124 2.2534 39.2734 0.716737C32.4227 -0.819921 25.2305 0.132959 19.0525 3.39576C12.8745 6.65856 8.13751 12.0059 5.73447 18.4297C3.33142 24.8536 3.42831 31.9102 6.00688 38.2694C8.58545 44.6286 13.4676 49.8511 19.7329 52.9524C25.9983 56.0536 33.2141 56.8195 40.0202 55.1056C46.8262 53.3917 52.7523 49.3164 56.6814 43.6479C60.6105 37.9794 62.2711 31.1093 61.3503 24.3327L55.6628 25.0632C56.4002 30.49 55.0704 35.9915 51.924 40.5308C48.7776 45.0701 44.032 48.3336 38.5817 49.7061C33.1315 51.0786 27.3531 50.4653 22.3358 47.9818C17.3185 45.4983 13.4089 41.3161 11.344 36.2237C9.27909 31.1313 9.2015 25.4804 11.1258 20.3362C13.0502 15.192 16.8436 10.9099 21.7909 8.29702C26.7382 5.68418 32.4977 4.92111 37.9837 6.15167C43.4697 7.38222 48.3032 10.5214 51.5731 14.9774L56.2432 11.7379Z" fill="#872BFF"/>
<path d="M56.2432 11.7379C52.1599 6.17344 46.124 2.2534 39.2734 0.716737C32.4227 -0.819921 25.2305 0.132959 19.0525 3.39576C12.8745 6.65856 8.13751 12.0059 5.73447 18.4297C3.33142 24.8536 3.42831 31.9102 6.00688 38.2694C8.58545 44.6286 13.4676 49.8511 19.7329 52.9524C25.9983 56.0536 33.2141 56.8195 40.0202 55.1056C46.8262 53.3917 52.7523 49.3164 56.6814 43.6479C60.6105 37.9794 62.2711 31.1093 61.3503 24.3327L55.6628 25.0632C56.4002 30.49 55.0704 35.9915 51.924 40.5308C48.7776 45.0701 44.032 48.3336 38.5817 49.7061C33.1315 51.0786 27.3531 50.4653 22.3358 47.9818C17.3185 45.4983 13.4089 41.3161 11.344 36.2237C9.27909 31.1313 9.2015 25.4804 11.1258 20.3362C13.0502 15.192 16.8436 10.9099 21.7909 8.29702C26.7382 5.68418 32.4977 4.92111 37.9837 6.15167C43.4697 7.38222 48.3032 10.5214 51.5731 14.9774L56.2432 11.7379Z" stroke="#6A14DA"/>
</g>
<line x1="4" y1="-4" x2="10.2752" y2="-4" transform="matrix(0.650781 0.759266 -0.776985 0.62952 15.148 30.7098)" stroke="#6A14DA" stroke-width="8" stroke-linecap="round"/>
<path d="M52.7417 24.116C54.3638 23.0646 54.7925 20.9199 53.6994 19.3257C52.6062 17.7315 50.4051 17.2914 48.7831 18.3428L50.7624 21.2294L52.7417 24.116ZM22.8922 39.2939L24.8715 42.1805L52.7417 24.116L50.7624 21.2294L48.7831 18.3428L20.9129 36.4073L22.8922 39.2939Z" fill="#6A14DA"/>
<ellipse cx="58.8113" cy="24.3872" rx="2.78702" ry="2.70968" fill="#872BFF"/>
<ellipse cx="53.2373" cy="13.5484" rx="2.78702" ry="2.70968" fill="#872BFF"/>
<defs>
<filter id="filter0_d_2052_213" x="0" y="0" width="65.5984" height="64.0001" filterUnits="userSpaceOnUse" color-interpolation-filters="sRGB">
<feFlood flood-opacity="0" result="BackgroundImageFix"/>
<feColorMatrix in="SourceAlpha" type="matrix" values="0 0 0 0 0 0 0 0 0 0 0 0 0 0 0 0 0 0 127 0" result="hardAlpha"/>
<feOffset dy="4"/>
<feGaussianBlur stdDeviation="2"/>
<feComposite in2="hardAlpha" operator="out"/>
<feColorMatrix type="matrix" values="0 0 0 0 0 0 0 0 0 0 0 0 0 0 0 0 0 0 0.25 0"/>
<feBlend mode="normal" in2="BackgroundImageFix" result="effect1_dropShadow_2052_213"/>
<feBlend mode="normal" in="SourceGraphic" in2="effect1_dropShadow_2052_213" result="shape"/>
</filter>
</defs>
</svg>
