<svg width="295" height="269" viewBox="0 0 295 269" fill="none" xmlns="http://www.w3.org/2000/svg">
<path d="M38.2614 194.484C37.9737 194.705 37.6069 194.711 37.3319 194.554C37.225 194.493 37.1273 194.416 37.0632 194.316C36.0807 192.88 35.1472 191.429 34.2626 189.963C34.0155 189.545 34.1446 188.998 34.5638 188.723C34.983 188.448 35.5087 188.555 35.7557 188.974C36.6037 190.397 37.522 191.839 38.4832 193.242C38.7486 193.628 38.65 194.192 38.2614 194.484ZM105.162 70.8726C105.615 70.6811 105.838 70.1455 105.665 69.7045C105.5 69.2474 104.99 69.0426 104.553 69.2428C102.922 69.9404 101.322 70.6554 99.7532 71.3878C99.3157 71.588 99.0919 72.1236 99.2655 72.5646C99.3387 72.7559 99.4638 72.8913 99.6166 72.9782C99.8457 73.1086 100.124 73.1172 100.387 73.0102C101.947 72.294 103.547 71.5789 105.153 70.8888L105.162 70.8726ZM33.3129 184.525C32.5445 182.997 31.8343 181.438 31.1943 179.898C31.0054 179.448 30.5012 179.268 30.0638 179.469C29.6171 179.685 29.4177 180.213 29.5914 180.654C30.2435 182.244 30.9751 183.837 31.7648 185.398C31.8411 185.548 31.9601 185.659 32.0976 185.737C32.342 185.876 32.6599 185.886 32.9353 185.722C33.3605 185.472 33.5447 184.935 33.3221 184.509L33.3129 184.525ZM86.7384 78.8027C86.5403 78.3692 86.0024 78.2128 85.5863 78.4466C84.0077 79.302 82.4689 80.1586 80.9606 81.0326C80.5353 81.2825 80.3664 81.828 80.589 82.2541C80.6652 82.4044 80.7843 82.5149 80.9218 82.5931C81.1662 82.7322 81.4841 82.742 81.7595 82.5779C83.2586 81.7201 84.7822 80.8547 86.3363 80.0068C86.7677 79.7817 86.961 79.2288 86.7384 78.8027ZM28.092 170.177C27.9764 169.705 27.5121 169.419 27.0381 169.577C26.5732 169.719 26.273 170.211 26.4038 170.692C26.7928 172.389 27.2614 174.089 27.8033 175.766C27.8673 175.973 28.0138 176.142 28.1818 176.238C28.3956 176.359 28.6493 176.375 28.9032 176.285C29.362 176.118 29.6011 175.591 29.4611 175.126C28.9314 173.499 28.4842 171.833 28.1073 170.186L28.092 170.177ZM124.11 61.5943C122.44 62.1838 120.81 62.7746 119.18 63.3654C118.721 63.5321 118.466 64.0503 118.606 64.5149C118.67 64.7223 118.817 64.8913 118.985 64.9869C119.183 65.0998 119.452 65.1246 119.682 65.0413C121.297 64.4418 122.927 63.851 124.572 63.2689C125.031 63.1023 125.301 62.5927 125.161 62.1281C125.021 61.6635 124.538 61.4102 124.079 61.5769L124.11 61.5943ZM51.7891 208.341C50.5372 207.201 49.3282 206.021 48.1589 204.842C47.8353 204.487 47.2666 204.527 46.9299 204.87C46.5839 205.229 46.5801 205.805 46.9221 206.128C48.0975 207.331 49.3463 208.512 50.6043 209.677C50.6501 209.703 50.702 209.754 50.7478 209.78C51.0838 209.971 51.5517 209.895 51.8303 209.583C52.1609 209.216 52.1403 208.648 51.7983 208.325L51.7891 208.341ZM115.373 65.7548C115.224 65.3064 114.732 65.0692 114.273 65.2359C112.631 65.8838 111.004 66.5405 109.401 67.1896C108.948 67.3811 108.718 67.8919 108.858 68.3565C108.931 68.5478 109.063 68.708 109.231 68.8036C109.444 68.9253 109.713 68.9501 109.976 68.8431C111.564 68.1853 113.182 67.5448 114.825 66.8968C115.268 66.7215 115.523 66.2033 115.383 65.7387L115.373 65.7548ZM145.053 55.8462C144.937 55.3741 144.473 55.0885 144.008 55.2303C142.314 55.7205 140.659 56.2119 139.005 56.7033C138.54 56.8451 138.255 57.3459 138.37 57.818C138.416 58.0578 138.578 58.2354 138.761 58.3397C138.944 58.444 139.189 58.4762 139.409 58.409C141.048 57.9089 142.703 57.4175 144.388 56.9435C144.853 56.8017 145.153 56.3096 145.037 55.8375L145.053 55.8462ZM44.7245 201.177C43.595 199.893 42.5145 198.594 41.489 197.305C41.1991 196.926 40.6519 196.892 40.2694 197.209C39.8868 197.526 39.828 198.092 40.1179 198.47C41.1495 199.785 42.2513 201.117 43.4113 202.419C43.4693 202.495 43.5457 202.538 43.622 202.582C43.9428 202.764 44.3525 202.719 44.6372 202.432C44.9984 202.082 45.0328 201.524 44.7245 201.177ZM129.527 61.5972C131.154 61.0474 132.797 60.5063 134.47 59.9826C134.934 59.8408 135.204 59.3313 135.104 58.8679C134.988 58.3958 134.506 58.1425 134.05 58.2682C132.368 58.8081 130.71 59.3405 129.083 59.8902C128.624 60.0569 128.349 60.5416 128.479 61.0223C128.534 61.2459 128.681 61.4149 128.864 61.5192C129.062 61.6321 129.307 61.6644 129.536 61.581L129.527 61.5972ZM34.495 125.274C34.9074 125.509 35.4212 125.352 35.6846 124.924C36.5488 123.406 37.4984 121.914 38.4787 120.441C38.7574 120.022 38.6634 119.476 38.2694 119.209C37.8814 118.967 37.3402 119.066 37.0614 119.484C36.0475 120.982 35.0856 122.53 34.1878 124.073C33.9396 124.509 34.0581 125.047 34.4705 125.281L34.495 125.274ZM31.062 134.399C31.6939 132.791 32.4144 131.169 33.1961 129.582C33.4137 129.128 33.2463 128.605 32.8155 128.403C32.3847 128.201 31.8678 128.398 31.6502 128.852C30.8501 130.471 30.1172 132.15 29.4578 133.806C29.2982 134.229 29.4382 134.694 29.8048 134.902C29.8354 134.92 29.8812 134.946 29.9117 134.963C30.3609 135.133 30.8657 134.886 31.0436 134.431L31.062 134.399ZM40.352 116.331C40.352 116.331 40.4284 116.375 40.4589 116.392C40.8255 116.6 41.3117 116.492 41.5782 116.131C42.6225 114.757 43.7402 113.362 44.8945 112.008C45.2099 111.632 45.1892 111.064 44.8381 110.757C44.4869 110.45 43.9335 110.499 43.6181 110.875C42.4454 112.261 41.3032 113.664 40.2406 115.07C39.9313 115.471 40.0008 116.024 40.3612 116.315L40.352 116.331ZM47.1955 108.142C47.1955 108.142 47.2993 108.244 47.3604 108.279C47.6964 108.47 48.1245 108.393 48.4092 108.105C49.5879 106.851 50.8552 105.584 52.1347 104.366C52.4959 104.015 52.5303 103.457 52.2067 103.102C51.8831 102.747 51.342 102.738 50.9808 103.089C49.6829 104.339 48.4064 105.623 47.1941 106.901C46.8482 107.26 46.8443 107.835 47.1863 108.158L47.1955 108.142ZM90.1793 77.5527C90.4084 77.6831 90.7172 77.7091 90.9833 77.5611C92.516 76.7865 94.0731 76.0044 95.6699 75.2235C96.1165 75.0072 96.316 74.4791 96.127 74.0294C95.9381 73.5797 95.4339 73.3997 94.9872 73.6161C93.3751 74.3883 91.818 75.1704 90.267 75.9773C89.8356 76.2023 89.6362 76.7304 89.8252 77.1801C89.8922 77.3466 90.0174 77.482 90.1701 77.5689L90.1793 77.5527ZM26.6748 159.982C26.6479 159.496 26.2448 159.139 25.7556 159.181C25.2817 159.232 24.9143 159.665 24.932 160.167C25.0213 161.928 25.1963 163.717 25.4385 165.459C25.481 165.74 25.6397 165.959 25.8535 166.08C26.0215 166.176 26.2263 166.207 26.4281 166.172C26.9051 166.08 27.2359 165.605 27.1601 165.134C26.9147 163.434 26.752 161.694 26.6656 159.998L26.6748 159.982ZM63.0104 93.9584C63.0897 94.0677 63.1722 94.136 63.2791 94.1968C63.5693 94.362 63.9301 94.332 64.2086 94.1269C65.5856 93.0927 67.0024 92.0597 68.459 91.0279C68.8629 90.7444 68.9768 90.189 68.7205 89.7866C68.4642 89.3841 67.9294 89.2936 67.5254 89.5771C66.0444 90.6163 64.6031 91.6568 63.2169 92.7072C62.8282 92.9993 62.7297 93.5634 62.9951 93.9497L63.0104 93.9584ZM29.322 139.375C29.4694 138.903 29.2285 138.402 28.767 138.289C28.3147 138.16 27.8313 138.441 27.684 138.914C27.1467 140.64 26.6858 142.409 26.3075 144.14C26.2305 144.524 26.4012 144.899 26.7067 145.073C26.7831 145.116 26.8595 145.16 26.9542 145.171C27.4096 145.259 27.8809 144.928 27.9885 144.455C28.3637 142.765 28.8123 141.053 29.322 139.375ZM60.2408 96.125C59.9509 95.7462 59.4129 95.6967 59.0396 95.9975C57.6379 97.1461 56.2759 98.2959 54.9537 99.4469C54.5865 99.7725 54.5276 100.338 54.8267 100.701C54.8847 100.776 54.9672 100.845 55.0588 100.897C55.3643 101.071 55.7648 101.042 56.0556 100.78C57.3533 99.636 58.6908 98.4937 60.0833 97.3613C60.4658 97.0444 60.54 96.4877 60.2653 96.1176L60.2408 96.125ZM27.0798 149.605C27.1416 149.106 26.8151 148.685 26.3321 148.645C25.8491 148.605 25.4237 148.962 25.3619 149.462C25.1394 151.238 24.9873 153.034 24.9146 154.832C24.9049 155.168 25.0666 155.453 25.3415 155.609C25.4637 155.679 25.6043 155.716 25.748 155.712C26.2341 155.711 26.6229 155.312 26.6449 154.811C26.7206 153.079 26.8604 151.341 27.0706 149.621L27.0798 149.605ZM77.609 84.0443C77.3864 83.6183 76.8547 83.4868 76.4202 83.7528C74.8904 84.7001 73.4003 85.6487 71.9347 86.5898C71.5155 86.8645 71.3864 87.4112 71.6335 87.8299C71.7036 87.9553 71.8074 88.0572 71.9296 88.1267C72.1893 88.2744 72.5317 88.2768 72.8162 88.0965C74.2665 87.1467 75.7474 86.2144 77.2528 85.2745C77.678 85.0246 77.8316 84.4704 77.5846 84.0518L77.609 84.0443ZM174.638 246.55C172.923 246.58 171.226 246.576 169.529 246.573C169.043 246.575 168.639 246.965 168.617 247.466C168.607 247.803 168.775 248.112 169.035 248.26C169.157 248.329 169.298 248.366 169.441 248.363C171.138 248.366 172.859 248.361 174.589 248.341C175.06 248.331 175.474 247.924 175.486 247.44C175.499 246.955 175.124 246.549 174.653 246.559L174.638 246.55ZM154.226 246.035C152.514 245.916 150.827 245.79 149.149 245.648C148.666 245.609 148.24 245.965 148.178 246.465C148.135 246.825 148.309 247.159 148.599 247.324C148.691 247.377 148.807 247.421 148.926 247.425C150.62 247.576 152.331 247.694 154.043 247.813C154.511 247.844 154.946 247.471 154.998 246.988C155.051 246.504 154.709 246.075 154.241 246.044L154.226 246.035ZM164.421 246.49C162.703 246.453 161.003 246.384 159.328 246.308C158.851 246.293 158.432 246.675 158.379 247.158C158.345 247.502 158.528 247.82 158.803 247.976C158.91 248.037 159.035 248.066 159.17 248.078C160.869 248.147 162.569 248.216 164.302 248.261C164.779 248.276 165.183 247.886 165.221 247.394C165.258 246.902 164.907 246.488 164.421 246.49ZM124.021 242.086C122.349 241.755 120.696 241.391 119.067 241.02C118.605 240.907 118.128 241.213 118.011 241.703C117.91 242.094 118.086 242.494 118.407 242.677C118.468 242.711 118.545 242.755 118.624 242.757C120.268 243.137 121.931 243.484 123.618 243.824C124.089 243.921 124.551 243.606 124.668 243.117C124.784 242.627 124.501 242.166 124.03 242.069L124.021 242.086ZM144.087 245.163C142.387 244.987 140.706 244.779 139.034 244.555C138.56 244.499 138.104 244.838 138.027 245.329C137.96 245.697 138.139 246.056 138.43 246.221C138.521 246.273 138.622 246.309 138.732 246.329C140.404 246.553 142.11 246.754 143.809 246.93C144.283 246.986 144.733 246.621 144.785 246.138C144.863 245.647 144.53 245.201 144.062 245.17L144.087 245.163ZM134.012 243.857C132.319 243.599 130.659 243.318 129 243.037C128.535 242.965 128.073 243.279 127.956 243.769C127.879 244.153 128.05 244.528 128.355 244.702C128.432 244.745 128.508 244.789 128.627 244.792C130.302 245.082 131.977 245.373 133.67 245.63C134.135 245.702 134.591 245.363 134.683 244.881C134.776 244.399 134.468 243.945 134.003 243.873L134.012 243.857ZM184.876 246.217C183.149 246.304 181.455 246.366 179.762 246.429C179.291 246.439 178.893 246.854 178.88 247.339C178.87 247.676 179.041 247.944 179.301 248.092C179.423 248.161 179.579 248.207 179.732 248.187C181.441 248.133 183.159 248.063 184.886 247.976C185.366 247.95 185.749 247.526 185.762 247.042C185.759 246.549 185.366 246.175 184.895 246.185L184.876 246.217ZM205.334 244.449C203.622 244.651 201.919 244.837 200.216 245.022C199.742 245.073 199.374 245.506 199.392 246.008C199.401 246.312 199.581 246.564 199.81 246.695C199.947 246.773 200.128 246.811 200.296 246.8C201.999 246.614 203.717 246.437 205.439 246.219C205.912 246.168 206.274 245.711 206.247 245.225C206.22 244.739 205.793 244.389 205.319 244.44L205.334 244.449ZM216.481 243.799C216.43 243.32 216.002 242.97 215.534 243.046C213.825 243.314 212.134 243.549 210.443 243.785C209.96 243.852 209.608 244.293 209.65 244.788C209.683 245.085 209.833 245.319 210.062 245.45C210.215 245.537 210.395 245.575 210.588 245.556C212.279 245.321 213.994 245.078 215.703 244.81C216.171 244.734 216.532 244.277 216.481 243.799ZM195.103 245.514C193.379 245.666 191.688 245.795 189.982 245.915C189.502 245.941 189.119 246.365 189.137 246.867C189.137 247.187 189.308 247.455 189.552 247.595C189.689 247.673 189.845 247.719 190.013 247.707C191.719 247.587 193.435 247.451 195.159 247.299C195.648 247.257 196.016 246.824 195.989 246.338C195.962 245.853 195.568 245.479 195.094 245.53L195.103 245.514ZM67.8106 220.516C66.3811 219.617 64.9852 218.694 63.6077 217.739C63.2168 217.431 62.6786 217.596 62.409 217.998C62.1302 218.417 62.2243 218.962 62.603 219.221C63.9805 220.176 65.407 221.116 66.8518 222.023L66.8823 222.041C67.2794 222.267 67.784 222.126 68.0536 221.723C68.3171 221.296 68.2078 220.742 67.8198 220.5L67.8106 220.516ZM174.587 49.4264C175.064 49.3343 175.379 48.8509 175.313 48.3639C175.237 47.893 174.791 47.5751 174.314 47.6672C172.605 48.0418 170.92 48.409 169.25 48.7849C168.779 48.9018 168.457 49.3604 168.539 49.8561C168.591 50.1207 168.734 50.3307 168.948 50.4523C169.116 50.5479 169.336 50.5876 169.547 50.5366C171.217 50.1607 172.902 49.7936 174.611 49.419L174.587 49.4264ZM164.174 49.9597C162.47 50.3591 160.782 50.7673 159.125 51.1929C158.654 51.3098 158.338 51.7933 158.429 52.2728C158.481 52.5374 158.633 52.7312 158.832 52.8442C159.015 52.9485 159.22 52.9795 159.446 52.9371C161.104 52.5116 162.783 52.1196 164.486 51.7201C164.957 51.6031 165.263 51.1358 165.182 50.6401C165.09 50.1606 164.635 49.8589 164.164 49.9758L164.174 49.9597ZM114.146 239.824C112.505 239.404 110.873 238.967 109.266 238.523C108.813 238.394 108.33 238.675 108.183 239.147C108.057 239.546 108.215 239.978 108.551 240.169C108.612 240.204 108.658 240.23 108.728 240.249C110.351 240.702 111.998 241.147 113.655 241.576C114.116 241.689 114.6 241.408 114.732 240.927C114.864 240.447 114.599 239.953 114.152 239.849L114.146 239.824ZM76.5106 225.552C75.362 224.941 74.2378 224.323 73.138 223.697L72.1147 223.115C71.7696 222.833 71.1732 223.028 70.925 223.464C70.6768 223.9 70.7953 224.438 71.2077 224.673L72.2463 225.264C73.3614 225.898 74.4916 226.542 75.6648 227.145C76.0772 227.38 76.6094 227.191 76.8423 226.746C77.0905 226.31 76.9383 225.795 76.5106 225.552ZM59.5457 214.786C58.1897 213.758 56.8826 212.715 55.6 211.664C55.2397 211.374 54.6863 211.422 54.377 211.824C54.0524 212.217 54.0975 212.777 54.4731 213.076C55.7618 214.152 57.0994 215.212 58.4707 216.249C58.5012 216.266 58.5318 216.284 58.5623 216.301C58.9289 216.51 59.4151 216.402 59.6908 216.024C59.9848 215.614 59.9152 215.061 59.5457 214.786ZM154.088 52.4757C152.397 52.9249 150.706 53.3741 149.054 53.8245C148.589 53.9663 148.298 54.4422 148.389 54.9218C148.45 55.1703 148.587 55.3553 148.786 55.4683C148.969 55.5726 149.189 55.6123 149.409 55.5451C151.061 55.0947 152.737 54.6369 154.419 54.2038C154.89 54.0869 155.19 53.5948 155.099 53.1152C155.008 52.6357 154.544 52.3501 154.073 52.467L154.088 52.4757ZM94.8852 233.805C93.3055 233.205 91.7349 232.589 90.1889 231.966C89.7489 231.78 89.2381 232.003 89.0509 232.474C88.867 232.904 89.0222 233.377 89.3888 233.586C89.4194 233.603 89.4499 233.62 89.4804 233.638C91.0326 234.286 92.6032 234.901 94.2226 235.502C94.6718 235.672 95.1766 235.425 95.3545 234.97C95.5416 234.499 95.3405 234 94.8913 233.829L94.8852 233.805ZM104.428 237.075C102.818 236.565 101.207 236.055 99.6246 235.496C99.1815 235.351 98.6767 235.599 98.5141 236.062C98.3546 236.484 98.5282 236.926 98.8795 237.125C98.9253 237.151 98.9712 237.178 99.017 237.204C100.609 237.746 102.226 238.281 103.86 238.783C104.304 238.929 104.802 238.656 104.974 238.177C105.137 237.713 104.896 237.213 104.453 237.067L104.428 237.075ZM185.468 46.2938C185.402 45.8068 184.956 45.4889 184.494 45.5897C182.788 45.9233 181.081 46.257 179.406 46.608C178.928 46.7001 178.598 47.1748 178.68 47.6705C178.722 47.9513 178.881 48.1699 179.095 48.2916C179.263 48.3872 179.467 48.4182 179.669 48.3833C181.345 48.0323 183.027 47.7061 184.733 47.3725C185.21 47.2804 185.541 46.8057 185.465 46.3348L185.468 46.2938ZM85.5447 229.965C83.9956 229.276 82.4803 228.564 80.9833 227.819C80.5525 227.616 80.0356 227.814 79.8118 228.243C79.6034 228.68 79.7403 229.186 80.1221 229.403L80.1679 229.429C81.6741 230.158 83.2201 230.888 84.7844 231.586C85.2152 231.788 85.726 231.565 85.9437 231.112C86.1613 230.658 85.9602 230.159 85.5386 229.94L85.5447 229.965Z" fill="#872BFF"/>
<path d="M216.751 39.0728C221.453 38.3265 227.082 36.5894 226.912 35.573C226.742 34.5566 220.861 34.6318 216.15 35.3943C215.721 35.4711 215.301 35.5318 214.898 35.6017C214.388 35.1831 213.319 34.3181 211.954 33.2209C211.97 33.2301 212.003 33.2485 212.019 33.2576L213.287 33.0594C213.446 33.0429 213.547 32.8652 213.498 32.6878L213.298 31.4616C213.274 31.2772 213.131 31.153 212.963 31.1856L211.695 31.3838C211.695 31.3838 211.575 31.444 211.522 31.4994L210.045 31.7281C208.888 30.7918 207.627 29.7751 206.383 28.7675L207.625 28.5762C207.784 28.5598 207.885 28.3821 207.837 28.2046L207.636 26.9785C207.613 26.7941 207.47 26.6698 207.301 26.7024L206.034 26.9007C206.034 26.9007 205.914 26.9608 205.861 27.0163L204.434 27.231C201.267 24.6799 198.6 22.5637 198.485 22.5408C198.196 22.4837 196.346 22.8421 196.346 22.8421C195.901 22.9098 195.562 23.0164 195.56 23.058C195.574 23.1086 196.067 23.0686 196.486 23.0079L201.567 28.9999C201.222 29.0812 200.982 29.2015 200.994 29.2937C201.012 29.4113 201.386 29.4313 201.815 29.3545L201.865 29.3406L202.859 30.5261C202.538 30.6005 202.299 30.7208 202.311 30.813C202.329 30.9305 202.703 30.9506 203.131 30.8737L204.049 31.9303L204.458 32.8264C204.071 32.9055 203.765 33.0305 203.776 33.1227C203.795 33.2403 204.169 33.2604 204.597 33.1835L204.613 33.1927L205.435 34.9434C205.048 35.0225 204.742 35.1475 204.769 35.2489C204.788 35.3665 205.162 35.3866 205.59 35.3097L206.336 36.9314C203.185 37.4697 201.94 37.7025 199.606 38.0849C197.255 38.458 195.012 38.9785 193.143 39.5191C191.403 38.1436 187.997 35.3716 187.997 35.3716L186.66 35.4663L188.945 40.9584C188.545 41.1367 188.229 41.2779 188.022 41.4166C187.061 41.6397 186.469 41.816 186.48 41.9082C186.492 42.0004 187.091 41.9993 188.046 41.9007C188.292 41.9556 188.666 41.9757 189.139 42.0094L188.659 48.0023L189.965 47.6979C189.965 47.6979 192.508 43.7555 193.694 41.9712C195.58 41.8894 197.752 41.7563 200.052 41.5469C202.966 41.0875 204.256 40.9237 206.942 40.5269L206.73 42.2887C206.276 42.3725 205.945 42.5046 205.963 42.6221C205.975 42.7143 206.298 42.7483 206.708 42.7038L206.479 44.6477L206.463 44.6385C206.008 44.7224 205.668 44.8705 205.695 44.9719C205.707 45.0641 206.046 45.1073 206.44 45.0536L206.338 46.0221L205.81 47.3256C205.365 47.3933 205.025 47.5415 205.043 47.659C205.055 47.7512 205.311 47.79 205.654 47.7501L205.069 49.1922L205.037 49.1738C204.583 49.2576 204.242 49.4058 204.26 49.5233C204.272 49.6155 204.553 49.6473 204.897 49.6075L201.918 56.8729C201.505 56.959 201.016 57.0659 201.014 57.1074C201.028 57.1581 201.378 57.1437 201.823 57.076C201.823 57.076 203.709 56.8443 203.941 56.6986C204.036 56.6454 205.912 53.7993 208.142 50.4062L209.569 50.1915C209.569 50.1915 209.698 50.265 209.765 50.2603L211.033 50.062C211.192 50.0456 211.293 49.8679 211.244 49.6905L211.044 48.4643C211.02 48.2799 210.877 48.1557 210.709 48.1882L209.466 48.3795C210.338 47.0362 211.209 45.6928 212.035 44.4301L213.512 44.2015C213.512 44.2015 213.641 44.2751 213.708 44.2703L214.976 44.0721C215.135 44.0556 215.236 43.8779 215.187 43.7005L214.987 42.4743C214.963 42.2899 214.82 42.1657 214.652 42.1983L213.384 42.3965C213.384 42.3965 213.366 42.4289 213.315 42.4428C214.267 40.9955 215.003 39.8529 215.366 39.2897C215.769 39.2198 216.189 39.1591 216.634 39.0914L216.751 39.0728Z" fill="#872BFF"/>
</svg>
