<svg width="30" height="30" viewBox="0 0 30 30" fill="none" xmlns="http://www.w3.org/2000/svg">
<path d="M15 30C23.2843 30 30 23.2843 30 15C30 6.71573 23.2843 0 15 0C6.71573 0 0 6.71573 0 15C0 23.2843 6.71573 30 15 30Z" fill="#872BFF"/>
<path d="M24.476 10.069C23.8332 10.3541 23.1418 10.5469 22.4166 10.633C23.157 10.1894 23.7252 9.48747 23.9934 8.64974C23.3006 9.06071 22.5329 9.35885 21.7166 9.51955C21.0625 8.82301 20.1307 8.3877 19.0988 8.3877C17.1191 8.3877 15.5134 9.99337 15.5134 11.9731C15.5134 12.2541 15.5452 12.5277 15.6067 12.7903C12.6269 12.6408 9.98487 11.2135 8.21635 9.0436C7.90779 9.57303 7.73077 10.1894 7.73077 10.8463C7.73077 12.09 8.36422 13.1879 9.32575 13.8307C8.7383 13.8122 8.18507 13.651 7.7019 13.3817C7.70163 13.397 7.70163 13.4122 7.70163 13.4272C7.70163 15.1644 8.93804 16.6134 10.5779 16.9425C10.2774 17.0249 9.96 17.0685 9.63352 17.0685C9.40196 17.0685 9.17762 17.0463 8.95889 17.0046C9.41506 18.4287 10.7389 19.4654 12.3082 19.4945C11.0809 20.4563 9.53512 21.0293 7.85484 21.0293C7.56606 21.0293 7.27996 21.0125 7 20.9791C8.58589 21.9967 10.471 22.5901 12.4956 22.5901C19.0905 22.5901 22.6971 17.1268 22.6971 12.3884C22.6971 12.233 22.6936 12.0782 22.6867 11.9247C23.3877 11.4194 23.9955 10.788 24.476 10.069Z" fill="white"/>
</svg>
